<svg xmlns="http://www.w3.org/2000/svg" width="80" height="40" viewBox="0 0 994.973 493.29"><path fill="#000" d="M916.991,200.067l-178.813-127.47-.005.002c-.642-.519-1.293-1.031-1.968-1.528-11.526-8.481-26.855-12.965-44.33-12.965-4.565,0-9.294.313-14.057.933-10.478,1.363-21.611,4.222-31.501,7.911l-81.25,11.669-.181,4.113c-4.455-1.608-9.215-2.717-14.191-3.303-2.581-.303-5.234-.457-7.888-.457-3.471,0-7.019.263-10.547.781-14.771,2.177-28.209,8.319-39.939,18.256-3.46,2.93-6.698,6.128-9.723,9.565l-93.184-66.467-69.474,9.978v51.927c-4.547-6.507-11.036-12.053-19.049-15.982-20.427-10.015-47.99-8.003-67.56,6.277-7.787,5.683-12.34,12.711-17.006,20.941-21.956-2.687-44.989,1.294-65.838,10.303-3.161-1.798-5.636-4.361-8.881-6.107-30.951-16.653-78.65,6.823-85.084,42.997-3.212,18.059,5.757,33.693,21.905,40.295-5.508,19.354-6.924,39.044-2.42,58.174-13.282,6.659-24.151,16.298-30.084,30.141-9.973,23.27-3.448,42.931,10.316,52.621l-.003.002,143.423,102.301c8.039,5.734,17.445,8.226,27.219,6.822l651.032-93.497c78.487-11.272,103.91-112.581,39.08-158.234Z"></path><path fill="#fff" d="M473.813,148.626c-1.03-3.184-2.231-6.229-3.605-9.126-5.44-11.451-12.962-20.146-22.36-25.841-9.435-5.711-20.373-7.702-32.506-5.919-5.796.852-11.496,2.688-16.944,5.454-5.424,2.758-10.439,6.229-14.906,10.317-2.47,2.261-4.741,4.662-6.779,7.159l-.046-74.846-43.971,6.315v216.877l40.93-6.021.949-14.562c2.415,2.249,5.192,4.221,8.28,5.879,4.761,2.553,10.059,4.415,15.747,5.531,5.725,1.129,11.829,1.229,18.143.299,11.754-1.729,22.424-6.831,31.714-15.164,9.247-8.294,16.631-19.035,21.947-31.925,1.145-2.778,2.16-5.633,3.06-8.551-3.287-9.108-4.954-19.542-4.96-31.145-.007-12.348,1.78-23.987,5.306-34.731ZM432.201,206.771v.003c-8.49,19.001-24.208,24.946-36.018,22.415-10.759-2.308-22.075-12.365-21.565-33.695-.091-18.849,10.945-40.576,31.563-43.715,1.45-.198,2.859-.296,4.229-.296,7.805,0,14.272,3.199,18.867,9.39,8.246,11.107,9.531,31.268,2.923,45.899Z"></path><path fill="#00b0ff" d="M618.15,173.484c.43-.94.89-1.85,1.37-2.74l-.05-87.05-42.12,6.05-.64,14.51c-.84-.78-1.72-1.51-2.62-2.19-3.28-2.5-7.06-4.66-11.23-6.43-4.17-1.77-8.76-2.96-13.65-3.54-4.89-.57-9.96-.48-15.09.28-12.38,1.82-23.66,6.99-33.55,15.37-9.87,8.36-17.77,19.21-23.48,32.26-1.22,2.8-2.31,5.68-3.28,8.62-3.52,10.75-5.31,22.38-5.3,34.73,0,11.61,1.67,22.04,4.96,31.15,1.06,2.95,2.3,5.76,3.7,8.43,5.76,10.94,13.81,19.11,23.92,24.27,10.11,5.16,21.69,6.83,34.44,4.95,7.8-1.14,15.34-3.86,22.41-8.07,6.65-3.95,12.4-8.8,17.12-14.42v5.26c0,1.11.01,2.16.02,3.18.04,6.97.08,12.01-2.16,18.46-2.17,6.23-3.51,9.1-9.03,14.52-4.63,4.55-8.63,5.52-17.32,6.8-7.11,1.05-19.01-.43-26.4-2.46-7.3-2.01-17.09-5.55-22.5-8.91l-1.14-.71-9.82,35.31.57.4c7.68,5.31,22.78,12.33,33.79,14.39,7.98,1.5,15.18,2.5,22.55,2.5,3.13,0,6.29-.18,9.54-.58,13.58-1.68,17.57-3.11,26.23-7.87,9.84-5.42,17.07-11.8,22.11-19.51,7.13-10.91,10.19-18.5,13.34-28.67,4-12.92,4.72-21.79,4.71-34.6v-14.46c-6.45-11.09-7.7-25.3-1.4-39.23ZM571.2,188.754l-.01.02c-8.42,19.06-24.22,25-36.14,22.44-10.85-2.33-22.24-12.41-21.65-33.77-.09-18.91,10.98-40.71,31.69-43.86,1.5-.23,2.96-.34,4.38-.34,7.67,0,14.08,3.23,18.69,9.47,8.45,11.43,9.79,31.65,3.04,46.04Z"></path><path fill="#fff" d="M742.773,107.212c-.387-23.177-25.899-40.387-63.309-35.524-15.997,2.079-35.017,8.358-45.692,15.487,0,0,5.161,20.337,8.465,33.35,22.239-11.365,49.641-17.411,57.287-3.379,2.871,5.286,1.95,15.859,1.889,19.528-28.699,2.408-67.585,7.663-81.893,34.067-.483.891-.94,1.803-1.366,2.742-6.305,13.932-5.055,28.143,1.392,39.232,12.86,22.119,46.424,31.802,82.117,1.975l.094,11.209,40.973-5.872s.439-89.009.042-112.817ZM698.417,187.501c-9.29,9.861-33.55,20.628-43.271,7.647-6.897-9.231.424-22.551,14.421-26.221,6.635-1.73,24.94-4.316,32.03-5.561l.05,20.24c-1.006,1.342-2.061,2.651-3.231,3.896Z"></path><path fill="#fff" d="M272.734,224.448c-5.201.659-19.4,5.427-19.897-3.336-.277-4.879,9.195-9.413,13.289-10.591,6.78-1.951,14.609-1.25,21.486-1.235.122-12.547-2.199-24.906-7.004-36.173-10.437.388-18.583-7.062-4.106-11.527,6.795-2.095,10.26-1.103,16.554-6.263,14.287-11.713,15.676-32.933,3.026-44.796-17.133-16.068-54.412-12.629-65.944,11.201-5.371,11.099-.977,15.272-.086,25.117.33,3.646-1.365,8.202-5.629,8.47-3.762.236-9.895-16.88-10.25-20.466-.249-2.509,1.041-9.78-1.22-10.692-1.045-.421-7.791-1.09-9.347-1.123-8.886-.191-21.146.784-29.904,2.814-2.189.508-17.641,5.142-17.842,6.298,3.221,7.102,5.013,15.114,3.667,23.242-.555,3.348-4.647,11.277-8.419,11.79-7.844,1.067-3.938-8.585-3.55-12.785,1.844-20.004-23.566-26.68-39.735-22.414-33.478,8.833-44.655,58.851-5.265,61.709,5.658.411,18.908-2.203,15.625,7.722-8.695,3.054-17.485,4.732-26.519,3.986-3.022,13.782-2.89,27.79.65,41.054.473,1.772,2.6,9.129,3.578,9.954,1.132.955,6.081.769,8.197,1.739.501.23.969-.089.705.926-.376,7.179-14.182,6.814-19.343,8.292-24.67,7.066-34.947,48.502-9.628,58.831,15.61,6.368,40.306-8.956,42.755-25.854.622-4.293-1.093-14.752,5.256-14.837,4.168-.055,3.748,7.666,5.752,9.564,1.742,1.649,10.546,5.581,13.222,6.627,19.938,7.795,43.458,8.292,64.844,2.545l.979-1.325c-2.528-9.041-3.333-19.158-2.514-28.725.192-2.244,1.67-11,2.56-12.704.215-.412.306-.818.84-.939,4.517-.995,8.53,1.06,10.245,5.169,3.186,7.63,2.002,18.784,5.619,27.766,15.099,37.492,72.525,41.439,93.217,1.834,16.384-31.358-12.239-75.123-45.863-70.866Z"></path></svg>